<svg enable-background="new 0 0 653 379" height="379" viewBox="0 0 653 379" width="653" xmlns="http://www.w3.org/2000/svg"><path clip-rule="evenodd" d="m427.353 260.018 85.418-13.943-53.834-69.928c-27.904 24.329-31.374 53.537-31.584 83.871zm-23.497 5.115c-.139-3.032-.625-7.905-.625-11.317 0-34.603 11.193-68.229 41.575-96.178l-31.642-37.883-48.973 149.4zm-187.971-148.693 2.716-8.314 174.429-.229-46.401 140.668-2-14.676h5.336l-.667-9.339h-23.348l.666 8.672h6.004l1.334 16.01s-117.401-132.124-118.069-132.792zm-77.253 135.126c23.425-18.604 41.658-36.339 54.806-71.825 20.753 18.825 32.592 46.056 32.592 74.074 0 55.644-45.383 101.026-101.026 101.026s-101.027-45.382-101.027-101.026 45.383-101.026 101.026-101.026c17.759 0 35.912 5.13 50.55 13.771-9.908 31.311-19.547 47.458-50.033 71.999-7.4.313-13.028 6.254-13.028 13.342 0 7.348 5.993 13.341 13.341 13.341 7.348-.001 12.799-5.994 12.799-13.676zm292.301 29.915c11.427 42.58 52.075 73.362 97.063 73.362 55.645 0 101.028-45.384 101.028-101.028s-45.384-101.027-101.028-101.027c-17.759 0-38.308 4.19-53.298 12.967l54.834 72.804c6.707.104 12.545 6.098 12.545 13.342 0 7.348-5.994 13.341-13.342 13.341-2.033 0-4.169-.521-5.973-1.37zm-248.167-138.304 35.788-98.732-11.341-19.344 22.681-24.682h48.695l.667 14.009h-42.691l-8.672 9.339 10.006 18.01-12.582 44.596h174.757l2.67-8.156c-14.046-1.828-38.271-10.48-44.057-15.507s-.719-9.647 5.871-9.862c34.492-1.467 85.734-4.356 95.469-4.398 9.734-.043 10.73 4.852 4.215 11.98-6.517 7.127-12.211 13.543-36.898 17.369l-6.671 18.011 41.354 51.229c19.49-11.831 43.064-17.987 65.97-17.987 68.72 0 124.767 56.047 124.767 124.766s-56.047 124.766-124.767 124.766c-56.534 0-106.245-38.989-120.856-92.874l-37.997 6.828c-1.626 4.48-5.419 7.914-9.948 10.603l6.779 32.145h8.672l.666 8.672-27.35 1.334v-9.339h6.672l-8.264-32.126c-12.291-2.012-18.732-12.535-15.072-22.979l-124.131-140.39-5.559 15.062c30.128 23.732 48.16 60.285 48.16 98.3 0 68.719-56.047 124.766-124.766 124.766s-124.766-56.052-124.766-124.771 56.047-124.765 124.766-124.765c19.982 0 40.452 4.873 57.763 14.127z" fill="#1f1a17" fill-rule="evenodd"/></svg>